<svg width="540" height="540" viewBox="0 0 540 540" fill="none" xmlns="http://www.w3.org/2000/svg">
<rect width="540" height="540" fill="#F4F5F9"/>
<path d="M231.671 295.192H397.368C397.368 273.868 379.981 256.568 358.433 256.568H270.606C249.11 256.568 231.671 273.868 231.671 295.192Z" fill="#C1C4D6"/>
<path d="M270.606 398H358.486C379.981 398 397.42 380.752 397.42 359.375H231.671C231.671 380.7 249.11 398 270.606 398Z" fill="#C1C4D6"/>
<path d="M384.67 314.479H244.368C236.992 314.479 231.039 320.385 231.039 327.702C231.039 335.019 236.992 340.925 244.368 340.925H384.67C392.046 340.925 398 335.019 398 327.702C398 320.385 392.046 314.479 384.67 314.479Z" fill="#C1C4D6"/>
<path d="M321.764 142H155.909L142 174.091H335.515L321.764 142Z" fill="#C1C4D6"/>
<path d="M221.239 349.027H234.938C226.561 345.368 220.818 337.267 220.818 327.493C220.818 317.353 227.351 308.573 236.571 305.332H221.187V294.983C221.187 267.962 243.315 246.01 270.553 246.01H319.077L325.61 184.022H151.747L174.454 397.948H240.206C215.707 378.714 221.239 349.027 221.239 349.027Z" fill="#C1C4D6"/>
</svg>
