<svg width="4404" height="2044" viewBox="0 0 4404 2044" fill="none" xmlns="http://www.w3.org/2000/svg">
<path d="M4109 1913.59H135.817L814.431 1644.94H3733.27L4109 1913.59Z" fill="#FDE5E3"/>
<path d="M829.064 1644.94H824.064V1913.59H829.064V1644.94Z" fill="white"/>
<path d="M758.43 1667.11V1913.59H753.43V1669.09L758.43 1667.11Z" fill="white"/>
<path d="M687.81 1695.07V1913.59H682.81V1697.05L687.81 1695.07Z" fill="white"/>
<path d="M617.18 1723.03V1913.59H612.18V1725.01L617.18 1723.03Z" fill="white"/>
<path d="M546.55 1750.99V1913.59H541.55V1752.97L546.55 1750.99Z" fill="white"/>
<path d="M475.92 1778.95V1913.59H470.92V1780.93L475.92 1778.95Z" fill="white"/>
<path d="M405.29 1806.91V1913.59H400.29V1808.89L405.29 1806.91Z" fill="white"/>
<path d="M334.66 1834.87V1913.59H329.66V1836.85L334.66 1834.87Z" fill="white"/>
<path d="M264.03 1862.83V1913.59H259.03V1864.81L264.03 1862.83Z" fill="white"/>
<path d="M1464.73 1644.94H1459.73V1913.59H1464.73V1644.94Z" fill="white"/>
<path d="M1394.1 1644.94H1389.1V1913.59H1394.1V1644.94Z" fill="white"/>
<path d="M1323.47 1644.94H1318.47V1913.59H1323.47V1644.94Z" fill="white"/>
<path d="M1252.84 1644.94H1247.84V1913.59H1252.84V1644.94Z" fill="white"/>
<path d="M1182.21 1644.94H1177.21V1913.59H1182.21V1644.94Z" fill="white"/>
<path d="M1111.58 1644.94H1106.58V1913.59H1111.58V1644.94Z" fill="white"/>
<path d="M1040.95 1644.94H1035.95V1913.59H1040.95V1644.94Z" fill="white"/>
<path d="M970.323 1644.94H965.323V1913.59H970.323V1644.94Z" fill="white"/>
<path d="M899.694 1644.94H894.694V1913.59H899.694V1644.94Z" fill="white"/>
<path d="M2100.39 1644.94H2095.39V1913.59H2100.39V1644.94Z" fill="white"/>
<path d="M2029.76 1644.94H2024.76V1913.59H2029.76V1644.94Z" fill="white"/>
<path d="M1959.13 1644.94H1954.13V1913.59H1959.13V1644.94Z" fill="white"/>
<path d="M1888.51 1644.94H1883.51V1913.59H1888.51V1644.94Z" fill="white"/>
<path d="M1817.88 1644.94H1812.88V1913.59H1817.88V1644.94Z" fill="white"/>
<path d="M1747.25 1644.94H1742.25V1913.59H1747.25V1644.94Z" fill="white"/>
<path d="M1676.62 1644.94H1671.62V1913.59H1676.62V1644.94Z" fill="white"/>
<path d="M1605.99 1644.94H1600.99V1913.59H1605.99V1644.94Z" fill="white"/>
<path d="M1535.36 1644.94H1530.36V1913.59H1535.36V1644.94Z" fill="white"/>
<path d="M2736.06 1644.94H2731.06V1913.59H2736.06V1644.94Z" fill="white"/>
<path d="M2665.43 1644.94H2660.43V1913.59H2665.43V1644.94Z" fill="white"/>
<path d="M2594.8 1644.94H2589.8V1913.59H2594.8V1644.94Z" fill="white"/>
<path d="M2524.17 1644.94H2519.17V1913.59H2524.17V1644.94Z" fill="white"/>
<path d="M2453.54 1644.94H2448.54V1913.59H2453.54V1644.94Z" fill="white"/>
<path d="M2382.91 1644.94H2377.91V1913.59H2382.91V1644.94Z" fill="white"/>
<path d="M2312.28 1644.94H2307.28V1913.59H2312.28V1644.94Z" fill="white"/>
<path d="M2241.65 1644.94H2236.65V1913.59H2241.65V1644.94Z" fill="white"/>
<path d="M2171.02 1644.94H2166.02V1913.59H2171.02V1644.94Z" fill="white"/>
<path d="M3371.72 1644.94H3366.72V1913.59H3371.72V1644.94Z" fill="white"/>
<path d="M3301.09 1644.94H3296.09V1913.59H3301.09V1644.94Z" fill="white"/>
<path d="M3230.46 1644.94H3225.46V1913.59H3230.46V1644.94Z" fill="white"/>
<path d="M3159.84 1644.94H3154.84V1913.59H3159.84V1644.94Z" fill="white"/>
<path d="M3089.21 1644.94H3084.21V1913.59H3089.21V1644.94Z" fill="white"/>
<path d="M3018.58 1644.94H3013.58V1913.59H3018.58V1644.94Z" fill="white"/>
<path d="M2947.95 1644.94H2942.95V1913.59H2947.95V1644.94Z" fill="white"/>
<path d="M2877.32 1644.94H2872.32V1913.59H2877.32V1644.94Z" fill="white"/>
<path d="M2806.69 1644.94H2801.69V1913.59H2806.69V1644.94Z" fill="white"/>
<path d="M4007.39 1840.94V1913.59H4002.39V1837.36L4007.39 1840.94Z" fill="white"/>
<path d="M3936.76 1790.44V1913.59H3931.76V1786.86L3936.76 1790.44Z" fill="white"/>
<path d="M3866.13 1739.94V1913.59H3861.13V1736.36L3866.13 1739.94Z" fill="white"/>
<path d="M3795.5 1689.43V1913.59H3790.5V1685.86L3795.5 1689.43Z" fill="white"/>
<path d="M3724.87 1644.94H3719.87V1913.59H3724.87V1644.94Z" fill="white"/>
<path d="M3654.24 1644.94H3649.24V1913.59H3654.24V1644.94Z" fill="white"/>
<path d="M3583.61 1644.94H3578.61V1913.59H3583.61V1644.94Z" fill="white"/>
<path d="M3512.98 1644.94H3507.98V1913.59H3512.98V1644.94Z" fill="white"/>
<path d="M3442.35 1644.94H3437.35V1913.59H3442.35V1644.94Z" fill="white"/>
<path d="M4038.22 1862.98H263.65L264.03 1862.83L276.28 1857.98H4031.22L4038.22 1862.98Z" fill="white"/>
<path d="M3963.92 1809.86H397.84L400.29 1808.89L402.47 1808.03L405.29 1806.91L410.47 1804.86H3956.93L3963.92 1809.86Z" fill="white"/>
<path d="M3889.65 1756.75H532L541.55 1752.97L544.63 1751.75H3882.65L3889.65 1756.75Z" fill="white"/>
<path d="M3815.37 1703.64H685.45V1698.64H3808.37L3815.37 1703.64Z" fill="white"/>
<path d="M2476.46 467.693C2560.27 396.097 2669.56 398.096 2751.76 472.729L3054.95 705.056C3101.79 740.948 3167.64 738.027 3211.12 698.127C3297.62 618.738 3415.96 631.606 3490.93 728.554L3976.21 1245.06L805.449 1239.69L1326.2 884.078C1468.93 786.612 1637.68 769.245 1799.76 925.992C1814.57 940.307 1837.52 931.026 1854.19 918.937L2476.46 467.693Z" fill="#E0F1F0"/>
<path d="M1892.56 1039.82L1905.5 1080.61C1911.7 1100.16 1887.46 1114.87 1872.99 1100.33L1654.53 880.974C1599.94 830.201 1555.32 808.324 1503.69 812.329C1505.82 812.024 1508.04 811.687 1510.34 811.306C1604.58 801.119 1703.35 832.747 1799.76 925.99C1814.56 940.302 1837.52 931.029 1854.19 918.937L1956.87 844.48C1895.57 888.929 1859.47 956.633 1892.56 1039.82Z" fill="#A9D8D5"/>
<path d="M3398.96 657.81C3331.09 660.477 3271.14 704.404 3248.57 769.283L3235.73 806.168C3209.99 880.146 3115.97 902.131 3060.08 847.244L2702.37 495.912C2664.14 454.031 2626.86 416.612 2576.9 419.289L2614.82 416.252C2626.14 416.252 2637.4 417.188 2648.5 419.017C2684.93 426.266 2720.33 444.181 2751.76 472.729L3054.95 705.057C3101.79 740.952 3167.64 738.024 3211.12 698.124C3249.08 663.285 3293.16 646.219 3337.02 646.219C3357.95 646.218 3378.83 650.104 3398.96 657.81Z" fill="#A9D8D5"/>
<path d="M2466.49 1241.12C2456.21 1207.28 2432.65 1177.55 2398.59 1160.35C2357.69 1139.7 2311.23 1141.99 2273.85 1162.38C2287 1097.47 2255.95 1029.24 2193.95 997.949C2119.6 960.41 2028.9 990.254 1991.36 1064.61C1971.21 1104.55 1970.48 1149.77 1985.65 1188.74C1978.57 1185.65 1970.77 1183.94 1962.56 1183.94C1930.63 1183.94 1904.74 1209.84 1904.74 1241.78L2466.49 1241.12Z" fill="#A9D8D5"/>
<path d="M2134.34 1238.12V1143.58" stroke="#573240" stroke-width="5" stroke-miterlimit="10" stroke-linecap="round"/>
<path d="M3754.71 1244.98C3742.81 1244.98 3736.07 1231.34 3743.31 1221.89L3778.1 1176.49C3785.34 1167.04 3778.61 1153.39 3766.7 1153.39H3759.93C3748.28 1153.39 3741.48 1140.25 3748.2 1130.74L3779.74 1086.16C3786.47 1076.65 3779.67 1063.51 3768.02 1063.51C3756.19 1063.51 3749.43 1050 3756.52 1040.54L3861.83 899.961C3867.57 892.294 3879.07 892.293 3884.81 899.961L3990.13 1040.54C3997.22 1050.01 3990.46 1063.51 3978.63 1063.51H3978.63C3966.98 1063.51 3960.17 1076.65 3966.9 1086.16L3998.44 1130.74C4005.17 1140.25 3998.37 1153.4 3986.72 1153.4H3979.94C3968.03 1153.4 3961.3 1167.04 3968.54 1176.49L4003.33 1221.89C4010.57 1231.34 4003.84 1244.99 3991.93 1244.99" stroke="#A9D8D5" stroke-width="5" stroke-miterlimit="10"/>
<path d="M3872.62 894.29V1244.98" stroke="#A9D8D5" stroke-width="5" stroke-miterlimit="10"/>
<path d="M2369.28 1237.43C2355.37 1237.43 2348.05 1220.92 2357.39 1210.61L2391.4 1173.06C2400.05 1163.51 2394.47 1148.17 2381.7 1146.4L2373.55 1145.27C2359.11 1143.27 2354.6 1124.61 2366.54 1116.24L2391.68 1098.62C2403.58 1090.28 2399.15 1071.68 2384.76 1069.6L2382.21 1069.23C2368.92 1067.31 2363.73 1050.9 2373.48 1041.69L2395.1 1021.27C2404.62 1012.27 2399.93 996.266 2387.05 993.838L2386.76 993.783C2374.8 991.528 2369.61 977.297 2377.31 967.868L2401.3 938.477C2408.9 929.174 2403.96 915.131 2392.21 912.635L2392.21 912.634C2380.51 910.15 2375.55 896.213 2383.03 886.893L2488.31 755.778L2593.59 886.894C2601.07 896.214 2596.11 910.15 2584.42 912.634C2572.67 915.13 2567.73 929.172 2575.32 938.475L2599.31 967.869C2607.01 977.298 2601.82 991.527 2589.86 993.782L2589.57 993.836C2576.69 996.264 2572 1012.27 2581.52 1021.27L2603.44 1041.97C2613.14 1051.13 2608.06 1067.45 2594.87 1069.49L2592.16 1069.91C2578.47 1072.02 2573.71 1089.31 2584.38 1098.13L2610.24 1119.5C2620.97 1128.36 2616.09 1145.75 2602.31 1147.74L2593.12 1149.07C2580.32 1150.92 2574.86 1166.38 2583.66 1175.87L2615.76 1210.47C2625.29 1220.73 2618.01 1237.43 2604 1237.43" stroke="#573240" stroke-width="5" stroke-miterlimit="10" stroke-linecap="round" stroke-linejoin="round"/>
<path d="M2487.86 759.905V1237.82" stroke="#573240" stroke-width="5" stroke-miterlimit="10" stroke-linecap="round" stroke-linejoin="round"/>
<path d="M3660.42 1244.98H4067.86" stroke="#A9D8D5" stroke-width="5" stroke-miterlimit="10"/>
<path d="M1679.93 368.178C1764.08 368.178 1832.3 299.957 1832.3 215.803C1832.3 131.648 1764.08 63.4277 1679.93 63.4277C1595.77 63.4277 1527.55 131.648 1527.55 215.803C1527.55 299.957 1595.77 368.178 1679.93 368.178Z" stroke="#F1B104" stroke-width="5" stroke-miterlimit="10" stroke-linecap="round"/>
<path d="M3407.23 780.28C3466.14 750.432 3476.53 652.517 3430.45 561.581C3384.37 470.645 3299.27 421.123 3240.36 450.971C3181.46 480.819 3171.07 578.733 3217.15 669.669C3263.23 760.605 3348.33 810.127 3407.23 780.28Z" fill="#F1B104"/>
<path d="M3339.29 605.08C3350.05 619.49 3393.32 671.61 3451.57 664.54C3627.5 643.21 3691.27 910.3 3504.16 934.88L3522.01 883.8C3528.93 867.77 3531.91 831.6 3492.44 799.16C3453.56 767.22 3424.41 749.85 3419.91 747.46C3341.51 705.81 3326.61 637.28 3321.01 606.57C3319.72 607.48 3318.42 608.63 3317.14 610.04C3314.34 613.11 3306.91 608.89 3311.41 600.97C3315.05 594.57 3315.07 588.83 3313.14 583.63C3303.55 580.51 3263.37 566.94 3246.84 553.85C3246.41 553.51 3246 553.18 3245.59 552.84C3236.04 576.64 3213.02 641.6 3242.96 648.95C3244.02 649.21 3245.1 649.42 3246.19 649.57C3236.38 697.55 3170.94 739.84 3125.13 763.03C3066.92 724.38 3061.92 661.47 3152.53 631.34C3215.1 610.53 3239.68 552.48 3241.11 548.99C3223.55 533.02 3223.63 521.07 3230 514.21C3236.99 506.66 3254.41 507.04 3272 527.74L3339.29 605.08Z" fill="#573240"/>
<path d="M3419.91 747.46C3225 842.65 3124.93 784.47 3106.79 771.82C3150.94 751.9 3234.96 704.46 3246.19 649.58C3245.1 649.42 3244.02 649.21 3242.96 648.95C3213.02 641.59 3236.04 576.64 3245.59 552.84C3246 553.18 3246.41 553.51 3246.84 553.85C3263.37 566.94 3303.55 580.51 3313.14 583.63C3315.07 588.83 3315.05 594.57 3311.41 600.97C3309.14 604.96 3309.91 608.01 3311.58 609.66L3318.17 606.54C3322.98 601.01 3331.23 599.77 3337.51 603.87L3344.38 608.34C3352.55 613.66 3354.85 624.6 3349.52 632.76C3346.14 637.92 3340.5 640.74 3334.75 640.74C3332.89 640.74 3331.02 640.45 3329.21 639.84C3337.67 670.44 3360.22 714.45 3419.91 747.46Z" fill="#F6ACC1"/>
<path d="M3306.43 628.21C3287.19 642.119 3264.7 656.3 3242.96 650.953" stroke="#573240" stroke-width="4" stroke-miterlimit="10" stroke-linecap="round"/>
<path d="M3323.27 618.073C3327.07 612.588 3334.54 611.122 3340.13 614.766" stroke="#573240" stroke-width="4" stroke-miterlimit="10" stroke-linecap="round"/>
<path d="M3240.91 569.529C3240.91 569.529 3257.11 575.874 3249.97 611.313" stroke="#573240" stroke-width="4" stroke-miterlimit="10" stroke-linecap="round"/>
<path d="M3242.76 592.145C3243.48 588.617 3242.77 585.495 3241.18 585.171C3239.59 584.846 3237.71 587.443 3237 590.971C3236.28 594.498 3236.99 597.62 3238.58 597.944C3240.17 598.269 3242.04 595.672 3242.76 592.145Z" fill="#573240"/>
<path d="M3275.5 598.474C3276.22 594.946 3275.51 591.824 3273.92 591.5C3272.33 591.175 3270.45 593.772 3269.74 597.299C3269.02 600.827 3269.72 603.949 3271.32 604.274C3272.91 604.598 3274.78 602.001 3275.5 598.474Z" fill="#573240"/>
<path d="M3270.11 578.757C3270.11 578.757 3278.44 578.897 3287.4 588.839" stroke="#573240" stroke-width="4" stroke-miterlimit="10" stroke-linecap="round"/>
<path d="M3514.47 1620.56H3514.24C3376.92 1574.2 3125.05 1496.97 2971.56 1497.24H2711.32C2687.29 1497.24 2664.57 1502.86 2644.4 1512.84C2711.27 1444.64 2838.58 1347.17 3079.83 1232.82V1075.42C3079.83 1075.42 3012.12 1046.33 3016.78 993.9C3021.44 941.47 3079.83 783.09 3079.83 783.09C3079.83 783.09 3090.65 779.1 3106.79 771.82C3124.93 784.47 3225 842.65 3419.91 747.46C3421.02 748.07 3422.16 748.69 3423.31 749.3C3537.36 810.13 3524.75 861.91 3524.75 861.91L3443.1 1108.15C3443.1 1108.15 3422.15 1169.5 3514.18 1266.66C3592.94 1349.81 3612.67 1502.89 3514.47 1620.56Z" fill="#FF6E00"/>
<path d="M3930.8 1825.9H2711.32C2627.94 1825.9 2560.34 1758.3 2560.34 1674.92V1648.23C2560.34 1564.84 2627.94 1497.24 2711.32 1497.24H2971.56C3190.83 1496.85 3610.89 1654.63 3610.89 1654.63L3648.87 1621.36C3664.67 1607.52 3687.99 1606.59 3704.84 1619.13L3941.06 1794.93C3954.34 1804.81 3947.35 1825.9 3930.8 1825.9Z" fill="#F6ACC1"/>
<path d="M2887.93 1823.2C2797.17 1823.2 2723.6 1750.84 2723.6 1661.57C2723.6 1572.31 2797.17 1499.95 2887.93 1499.95" stroke="#573240" stroke-width="5" stroke-miterlimit="10" stroke-linecap="round"/>
<path d="M3633.61 1637.5L3601.1 1667.73" stroke="#573240" stroke-width="5" stroke-miterlimit="10" stroke-linecap="round"/>
<path d="M3900.87 1811.75C3918.47 1811.75 3925.9 1789.33 3911.78 1778.82" stroke="#573240" stroke-width="5" stroke-miterlimit="10" stroke-linecap="round"/>
<path d="M3929.3 1824.58C3944.55 1824.58 3951 1805.13 3938.76 1796.02" stroke="#573240" stroke-width="5" stroke-miterlimit="10" stroke-linecap="round"/>
<path d="M3088.57 677.771L3242.9 629.683C3246.86 628.448 3250.79 631.787 3250.33 636.034C3248.16 656.062 3229.92 708.558 3108.33 769.243L3088.57 677.771Z" fill="#F1B104"/>
<path d="M3249.38 633.853C3248.31 651.971 3234.72 706.169 3108.33 769.245" stroke="white" stroke-width="5" stroke-miterlimit="10" stroke-linecap="round"/>
<path d="M3153.06 695.078C3159.45 694.899 3164.48 689.409 3164.29 682.816C3164.11 676.223 3158.78 671.024 3152.39 671.204C3146.01 671.383 3140.98 676.873 3141.16 683.466C3141.35 690.059 3146.68 695.258 3153.06 695.078Z" fill="white"/>
<path d="M3210.54 681.752C3216.93 681.573 3221.96 676.083 3221.77 669.49C3221.59 662.897 3216.26 657.698 3209.87 657.878C3203.49 658.058 3198.46 663.547 3198.64 670.14C3198.83 676.733 3204.16 681.932 3210.54 681.752Z" fill="#FF6E00"/>
<path d="M3152.26 706.809C3158.65 706.63 3163.67 701.14 3163.49 694.547C3163.3 687.954 3157.97 682.755 3151.59 682.935C3145.2 683.114 3140.17 688.604 3140.36 695.197C3140.54 701.79 3145.87 706.989 3152.26 706.809Z" stroke="#573240" stroke-width="4" stroke-miterlimit="10" stroke-linecap="round"/>
<path d="M3190.22 658.488L3185.95 681.924" stroke="#A9D8D5" stroke-width="5" stroke-miterlimit="10" stroke-linecap="round"/>
<path d="M3128.75 721.62L3155.58 725.129" stroke="#A9D8D5" stroke-width="5" stroke-miterlimit="10" stroke-linecap="round"/>
<path d="M3121.82 680.847C3119.1 711.678 3101.9 775.049 3010.08 808.327L3079.83 783.091C3079.83 783.091 3021.44 941.472 3016.78 993.899C3013.45 1031.34 3047.05 1056.9 3066.51 1068.44L3012.7 1209.95C2992.23 1261.59 2942.31 1295.5 2886.76 1295.5C2847.69 1295.5 2813.77 1279.48 2789.63 1254.54C2753.09 1216.78 2738.93 1158.58 2763.13 1104.59L2896.02 808.244C2918.55 757.983 2960.8 719.227 3012.83 701.108L3106.08 668.638C3114.2 665.806 3122.58 672.279 3121.82 680.847Z" fill="#F6ACC1"/>
<path d="M3037.11 712.886L3105.29 689.515C3112.2 687.105 3119.33 692.612 3118.68 699.901" stroke="#573240" stroke-width="5" stroke-miterlimit="10" stroke-linecap="round"/>
<path d="M3028.41 736.83L3096.58 713.459C3103.49 711.049 3110.62 716.556 3109.97 723.845" stroke="#573240" stroke-width="5" stroke-miterlimit="10" stroke-linecap="round"/>
<path d="M3019.7 761.872L3081.8 740.616C3088.18 738.391 3094.77 743.476 3094.17 750.206" stroke="#573240" stroke-width="5" stroke-miterlimit="10" stroke-linecap="round"/>
<path d="M3121.82 680.848C3119.1 711.679 3101.9 775.05 3010.08 808.328" stroke="#573240" stroke-width="5" stroke-miterlimit="10" stroke-linecap="round"/>
<path d="M2922.31 1122.13L3010.08 808.33H2982.16" stroke="#573240" stroke-width="5" stroke-miterlimit="10" stroke-linecap="round"/>
<path d="M3522.01 883.795L3411.38 1200.31C3390.68 1259.55 3334.78 1299.23 3272.03 1299.23H3029.12C3021.15 1299.23 3013.53 1302.47 3008.01 1308.2L2960.44 1346.28C2949.95 1357.16 2935.61 1363.48 2920.51 1363.87L2825.17 1367.25C2814.48 1367.52 2808.76 1354.81 2816.02 1346.96C2857.75 1301.84 2983.3 1183.88 3267.59 1142.05L3395.79 832.233C3413.31 794.742 3459.89 778.075 3494.65 800.524C3521.18 817.654 3532.49 854.009 3522.01 883.795Z" fill="#F6ACC1"/>
<path d="M3252.47 1141.43C3252.47 1141.43 3271.4 1138.34 3298.57 1138.78" stroke="#573240" stroke-width="5" stroke-miterlimit="10" stroke-linecap="round"/>
<path d="M2857.82 1363.99C2847.13 1364.26 2841.41 1351.55 2848.67 1343.7C2858.72 1332.83 2873.64 1317.73 2894.47 1300.49" stroke="#573240" stroke-width="5" stroke-miterlimit="10" stroke-linecap="round"/>
<path d="M2892.65 1363.99C2881.96 1364.26 2876.24 1351.55 2883.5 1343.7C2893.55 1332.83 2908.47 1317.73 2929.3 1300.49" stroke="#573240" stroke-width="5" stroke-miterlimit="10" stroke-linecap="round"/>
<path d="M2921.61 1362.04C2915.83 1358.21 2913.97 1349.59 2919.42 1343.7C2929.47 1332.83 2944.39 1317.73 2965.21 1300.49" stroke="#573240" stroke-width="5" stroke-miterlimit="10" stroke-linecap="round"/>
<path d="M3034.75 1281.11L3013.25 1303.91" stroke="#573240" stroke-width="5" stroke-miterlimit="10" stroke-linecap="round"/>
<path d="M2870.71 1292.89C2904.74 1266.93 2951.41 1237.59 3010.61 1211.45" stroke="#573240" stroke-width="5" stroke-miterlimit="10" stroke-linecap="round"/>
<path d="M3016.78 993.899C3012.12 1046.33 3079.83 1073.25 3079.83 1073.25C3107.81 1077.64 3122.93 1076.51 3122.93 1076.51" stroke="white" stroke-width="5" stroke-miterlimit="10" stroke-linecap="round"/>
<path d="M1030.76 1750.44L959.511 1769.35C836.321 1802.06 709.944 1728.7 677.24 1605.51L662.042 1515.15L1360.11 1052.24C1446.31 993.482 1564.22 1019.82 1617.23 1109.67C1661.01 1183.88 1646.23 1278.69 1581.94 1336.06L1030.76 1750.44Z" fill="#573240"/>
<path d="M1637.68 1241.78L1606.2 1637.5L1326.75 1709.68L1337.53 1268.71L1637.68 1241.78Z" fill="#573240"/>
<path d="M662.041 1515.15L1476.88 1224.76C1577.38 1189.14 1686.89 1240.94 1715.67 1344.15C1739.44 1429.4 1700 1519.66 1621.49 1559.68L1215.65 1766.56C1139.12 1805.57 1054.52 1825.9 968.721 1825.9H893.423C763.23 1825.9 662.041 1719.73 662.041 1588.76V1515.15V1515.15Z" fill="#573240"/>
<path d="M1120.22 1353.02L1488.85 1222.58C1589.35 1186.96 1698.86 1247.47 1727.64 1350.68" stroke="white" stroke-width="5" stroke-miterlimit="10"/>
<path d="M1620.4 1564.03L1339.1 1707.13" stroke="white" stroke-width="5" stroke-miterlimit="10"/>
<path d="M1604.31 1633.02L1326.75 1710.77C1301.19 1717.93 1283.52 1741.23 1283.52 1767.78C1283.52 1800.48 1310.03 1826.99 1342.73 1826.99H1637.2C1661.87 1826.99 1685.62 1817.65 1703.68 1800.85C1757.16 1751.1 1739.06 1662.4 1670.37 1637.58L1663.81 1635.21C1644.69 1628.3 1623.89 1627.54 1604.31 1633.02Z" fill="white" stroke="#F1B104" stroke-width="5" stroke-miterlimit="10" stroke-linecap="round"/>
<path d="M1326.75 1710.77V1824.81" stroke="#F1B104" stroke-width="5" stroke-miterlimit="10" stroke-linecap="round"/>
<path d="M1304.99 1722.62V1812.96" stroke="#F1B104" stroke-width="5" stroke-miterlimit="10" stroke-linecap="round"/>
<path d="M1349.61 1705.33V1826.99" stroke="#F1B104" stroke-width="5" stroke-miterlimit="10" stroke-linecap="round"/>
<path d="M1372.47 1698.8V1826.99" stroke="#F1B104" stroke-width="5" stroke-miterlimit="10" stroke-linecap="round"/>
<path d="M1395.32 1692.27V1826.99" stroke="#F1B104" stroke-width="5" stroke-miterlimit="10" stroke-linecap="round"/>
<path d="M1418.18 1685.74V1826.99" stroke="#F1B104" stroke-width="5" stroke-miterlimit="10" stroke-linecap="round"/>
<path d="M1441.04 1679.21V1826.99" stroke="#F1B104" stroke-width="5" stroke-miterlimit="10" stroke-linecap="round"/>
<path d="M1463.89 1672.67V1826.99" stroke="#F1B104" stroke-width="5" stroke-miterlimit="10" stroke-linecap="round"/>
<path d="M1486.75 1667.23V1826.99" stroke="#F1B104" stroke-width="5" stroke-miterlimit="10" stroke-linecap="round"/>
<path d="M1509.6 1660.7V1826.99" stroke="#F1B104" stroke-width="5" stroke-miterlimit="10" stroke-linecap="round"/>
<path d="M1532.46 1654.17V1826.99" stroke="#F1B104" stroke-width="5" stroke-miterlimit="10" stroke-linecap="round"/>
<path d="M1555.32 1647.64V1826.99" stroke="#F1B104" stroke-width="5" stroke-miterlimit="10" stroke-linecap="round"/>
<path d="M1578.17 1641.11V1826.99" stroke="#F1B104" stroke-width="5" stroke-miterlimit="10" stroke-linecap="round"/>
<path d="M1601.03 1634.58V1826.99" stroke="#F1B104" stroke-width="5" stroke-miterlimit="10" stroke-linecap="round"/>
<path d="M1623.88 1630.23V1826.99" stroke="#F1B104" stroke-width="5" stroke-miterlimit="10" stroke-linecap="round"/>
<path d="M1646.74 1631.2V1826.02" stroke="#F1B104" stroke-width="5" stroke-miterlimit="10" stroke-linecap="round"/>
<path d="M1669.6 1637.73V1820.58" stroke="#F1B104" stroke-width="5" stroke-miterlimit="10" stroke-linecap="round"/>
<path d="M1692.45 1649.7V1808.61" stroke="#F1B104" stroke-width="5" stroke-miterlimit="10" stroke-linecap="round"/>
<path d="M1715.31 1671.47V1786.84" stroke="#F1B104" stroke-width="5" stroke-miterlimit="10" stroke-linecap="round"/>
<path d="M1120.22 1355.2C1056.12 1377.78 1002.08 1422.31 967.654 1480.9L924.755 1553.9C869.117 1648.59 767.507 1706.73 657.688 1706.73V1103.42C657.688 969.678 714.915 842.327 814.92 753.524C911.496 667.766 1063 683.251 1139.92 787.002L1283.52 986.876L1120.22 1355.2Z" fill="#F1B104"/>
<path d="M1049.51 656.504V715.832C1021.7 704.023 991.761 698.015 961.721 698.015C925.521 698.015 889.18 706.733 856.278 724.539L947.703 598.819L1049.51 656.504Z" fill="#FCD4D0"/>
<path d="M1087.51 513.718C1087.51 525.353 1081.65 535.627 1072.71 541.733C1069.93 543.659 1066.83 545.161 1063.52 546.174C1055.21 549.189 1039.74 550.985 1013.91 541.527C1013.9 541.527 1013.89 541.516 1013.88 541.516V541.527C1015.49 546.087 1016.37 551.018 1016.37 556.188C1016.37 574.843 1004.88 590.592 989.169 595.62C985.752 596.709 982.149 597.296 978.405 597.296C957.432 597.296 940.442 578.891 940.442 556.187C940.442 533.483 957.432 515.078 978.405 515.078H1019.67C1019.64 514.632 1019.63 514.175 1019.63 513.718C1019.63 494.965 1034.83 479.771 1053.57 479.771C1072.31 479.771 1087.51 494.965 1087.51 513.718Z" fill="#FF6E00"/>
<path d="M1099.06 608.07H1097.4C1090.92 608.07 1086.09 613.98 1087.35 620.325L1089.5 631.002C1092.24 644.661 1081.8 657.417 1067.86 657.417H1027.42C1014.91 657.417 1003.52 650.266 998.074 639.001L990.749 623.85C989.16 628.672 984.632 632.144 979.277 632.144H961.504C954.854 632.144 948.835 629.445 944.482 625.091C940.118 620.737 937.429 614.719 937.429 608.068C937.429 594.768 948.204 583.993 961.504 583.993H974.075C981.498 583.993 987.821 588.673 990.27 595.236C1005.42 589.848 1016.37 574.404 1016.37 556.185C1016.37 551.015 1015.49 546.085 1013.88 541.524H1013.91C1039.74 550.982 1055.21 549.186 1063.52 546.171C1066.83 545.159 1069.93 543.657 1072.72 541.73L1104.54 598.587C1106.98 602.802 1103.94 608.07 1099.06 608.07Z" fill="#FCD4D0"/>
<path d="M1061.32 564.826L1041.84 567.671C1039.52 568.01 1037.37 566.405 1037.03 564.088L1036.79 562.47C1036.45 560.153 1038.06 558 1040.38 557.661L1059.86 554.816C1062.17 554.477 1064.33 556.082 1064.66 558.399L1064.9 560.017C1065.24 562.334 1063.63 564.487 1061.32 564.826Z" fill="#FF6E00"/>
<path d="M1054 588.155C1056.05 588.155 1057.7 585.406 1057.7 582.016C1057.7 578.626 1056.05 575.877 1054 575.877C1051.96 575.877 1050.3 578.626 1050.3 582.016C1050.3 585.406 1051.96 588.155 1054 588.155Z" fill="#573240"/>
<path d="M941.535 622.62C945.861 629.024 953.188 633.235 961.498 633.235" stroke="#573240" stroke-width="4" stroke-miterlimit="10" stroke-linecap="round"/>
<path d="M978.291 609.16C978.291 601.875 972.385 595.969 965.1 595.969" stroke="#573240" stroke-width="4" stroke-miterlimit="10" stroke-linecap="round"/>
<path d="M995.894 640.089C1001.34 651.349 1012.74 658.504 1025.24 658.504H1047.18" stroke="#573240" stroke-width="4" stroke-miterlimit="10" stroke-linecap="round"/>
<path d="M1781.11 943.851C1778.19 953.949 1746.31 961.904 1707.43 961.904C1668.54 961.904 1636.67 953.949 1633.75 943.851L1661.18 1132.26C1664.38 1139.43 1683.87 1144.93 1707.43 1144.93C1730.99 1144.93 1750.48 1139.43 1753.67 1132.26L1781.11 943.851Z" fill="#FF6E00"/>
<path d="M1661.18 1133.35C1664.38 1140.52 1683.87 1146.02 1707.43 1146.02C1730.99 1146.02 1750.48 1140.52 1753.67 1133.35" stroke="white" stroke-width="5" stroke-miterlimit="10" stroke-linecap="round"/>
<path d="M1737.94 1141.11L1757.51 956.633" stroke="white" stroke-width="5" stroke-miterlimit="10" stroke-linecap="round"/>
<path d="M1722.21 1144.06L1733.91 960.566" stroke="white" stroke-width="5" stroke-miterlimit="10" stroke-linecap="round"/>
<path d="M1675.89 1141.11L1656.33 956.633" stroke="white" stroke-width="5" stroke-miterlimit="10" stroke-linecap="round"/>
<path d="M1691.63 1144.06L1679.93 960.566" stroke="white" stroke-width="5" stroke-miterlimit="10" stroke-linecap="round"/>
<path d="M1707.43 961.904V1144.93" stroke="white" stroke-width="5" stroke-miterlimit="10" stroke-linecap="round"/>
<path d="M1630.73 943.393C1630.73 943.964 1630.8 944.523 1630.96 945.072C1630.96 945.083 1630.96 945.083 1630.96 945.083C1633.99 956.354 1667.06 965.232 1707.43 965.232C1747.78 965.232 1780.87 956.354 1783.9 945.083C1783.9 945.083 1783.9 945.083 1783.9 945.072C1784.05 944.523 1784.13 943.964 1784.13 943.393C1784.13 931.321 1749.78 921.544 1707.43 921.544C1665.06 921.544 1630.73 931.322 1630.73 943.393Z" fill="white"/>
<path d="M1707.61 944.508C1716.43 944.508 1723.58 941.955 1723.58 938.807C1723.58 935.658 1716.43 933.105 1707.61 933.105C1698.78 933.105 1691.63 935.658 1691.63 938.807C1691.63 941.955 1698.78 944.508 1707.61 944.508Z" stroke="#573240" stroke-width="5" stroke-miterlimit="10" stroke-linecap="round"/>
<path d="M1706.39 941.825L1696.95 881.757C1695.3 872.867 1689.23 865.433 1680.85 862.042L1645.75 847.843" stroke="#FF6E00" stroke-width="5" stroke-miterlimit="10"/>
<path d="M1772.91 1034.27H1759.35C1752.5 1034.27 1748.46 1028.19 1750.32 1020.69C1752.19 1013.18 1759.25 1007.1 1766.11 1007.1H1779.67C1786.52 1007.1 1790.56 1013.18 1788.7 1020.69C1786.83 1028.19 1779.77 1034.27 1772.91 1034.27Z" fill="#FCD4D0"/>
<path d="M1766.16 1061.45H1752.6C1745.75 1061.45 1741.7 1055.36 1743.57 1047.86C1745.43 1040.36 1752.5 1034.27 1759.35 1034.27H1772.91C1779.77 1034.27 1783.81 1040.36 1781.95 1047.86C1780.08 1055.36 1773.01 1061.45 1766.16 1061.45Z" fill="#FCD4D0"/>
<path d="M1759.41 1088.62H1745.85C1738.99 1088.62 1734.95 1082.54 1736.81 1075.03C1738.68 1067.53 1745.75 1061.45 1752.6 1061.45H1766.16C1773.01 1061.45 1777.06 1067.53 1775.19 1075.03C1773.33 1082.54 1766.26 1088.62 1759.41 1088.62Z" fill="#FCD4D0"/>
<path d="M1752.65 1115.8H1739.09C1732.24 1115.8 1728.2 1109.71 1730.06 1102.21C1731.93 1094.71 1738.99 1088.62 1745.85 1088.62H1759.41C1766.26 1088.62 1770.3 1094.71 1768.44 1102.21C1766.57 1109.71 1759.51 1115.8 1752.65 1115.8Z" fill="#FCD4D0"/>
<path d="M1758.47 1033.05H1773.94" stroke="#573240" stroke-width="5" stroke-miterlimit="10" stroke-linecap="round"/>
<path d="M1749.4 1062.23H1766.42" stroke="#573240" stroke-width="5" stroke-miterlimit="10" stroke-linecap="round"/>
<path d="M1742.61 1089.62H1760.72" stroke="#573240" stroke-width="5" stroke-miterlimit="10" stroke-linecap="round"/>
<path d="M1707.74 1006.09L1707.17 1012.3C1706.18 1023.44 1696.83 1031.99 1685.64 1031.99H1669.02C1655.98 1031.99 1645.98 1043.56 1647.86 1056.45L1655.66 1104.87C1659.32 1129.38 1647.15 1153.53 1625.27 1165.17L1385.17 1261.28C1416.85 1248.44 1444.48 1227.39 1458.35 1199.81C1472.16 1172.37 1476.33 1142.82 1472.11 1115.54C1470.78 1099.36 1468 1078.72 1464.16 1055.24H1562.84C1600.06 994.287 1639.92 1001.98 1639.92 1001.98H1703.97C1706.19 1001.98 1707.93 1003.88 1707.74 1006.09Z" fill="#FCD4D0"/>
<path d="M1628.84 1106.1C1643.11 1097.51 1650.75 1076.62 1650.75 1059.96" stroke="#573240" stroke-width="5" stroke-miterlimit="10" stroke-linecap="round"/>
<path d="M1082.64 622.37L1213.17 621.497C1222.52 621.435 1231.31 625.96 1236.68 633.608L1247.14 648.488C1253.58 657.649 1247.03 670.265 1235.83 670.265H1182.61L1081 631.437C1076.15 629.586 1077.45 622.405 1082.64 622.37Z" fill="#F1B104"/>
<path d="M1214.71 647.177C1220.13 647.177 1224.51 642.791 1224.51 637.381C1224.51 631.971 1220.13 627.585 1214.71 627.585C1209.3 627.585 1204.92 631.971 1204.92 637.381C1204.92 642.791 1209.3 647.177 1214.71 647.177Z" fill="#FF6E00"/>
<path d="M1159.21 647.721C1164.92 647.721 1169.55 643.092 1169.55 637.381C1169.55 631.67 1164.92 627.041 1159.21 627.041C1153.5 627.041 1148.87 631.67 1148.87 637.381C1148.87 643.092 1153.5 647.721 1159.21 647.721Z" fill="white"/>
<path d="M1167.91 653.163C1173.62 653.163 1178.25 648.534 1178.25 642.823C1178.25 637.112 1173.62 632.483 1167.91 632.483C1162.2 632.483 1157.57 637.112 1157.57 642.823C1157.57 648.534 1162.2 653.163 1167.91 653.163Z" stroke="#573240" stroke-width="4" stroke-miterlimit="10" stroke-linecap="round"/>
<path d="M1191.74 645.531L1209.79 659.502" stroke="#A9D8D5" stroke-width="5" stroke-miterlimit="10"/>
<path d="M1118.89 633.235H1137.67" stroke="#A9D8D5" stroke-width="5" stroke-miterlimit="10"/>
<path d="M1023 1111.76L1217.41 894.202L1266.54 963.583V721.89L1198.72 695.072C1189.77 691.524 1183.54 683.296 1182.57 673.718L1182.19 669.996H1235.95C1247.28 669.996 1253.79 657.109 1247.07 647.989L1235.74 632.632C1230.54 625.579 1222.28 621.443 1213.52 621.498L1159.18 621.857L1181.71 597.618C1185.77 593.243 1191.47 590.761 1197.44 590.761L1271.96 590.652C1271.96 590.652 1332.53 595.969 1375.3 675.329C1389.29 701.292 1463.29 1007.63 1472.11 1115.54C1476.34 1142.81 1472.17 1172.36 1458.35 1199.8C1426.05 1264.02 1319.29 1292.77 1260.15 1265.25L1023 1111.76Z" fill="#FCD4D0"/>
<path d="M1464.52 1057.35C1468.17 1079.96 1470.83 1099.85 1472.11 1115.54C1476.34 1142.81 1472.17 1172.36 1458.36 1199.8C1426.05 1264.02 1319.29 1292.77 1260.15 1265.25L866.919 1009.52" stroke="white" stroke-width="5" stroke-miterlimit="10" stroke-linecap="round"/>
<path d="M1266.54 721.89H1296.42" stroke="#573240" stroke-width="4" stroke-miterlimit="10" stroke-linecap="round"/>
<path d="M1266.54 957.053V1039.95" stroke="#573240" stroke-width="4" stroke-miterlimit="10" stroke-linecap="round"/>
<path d="M978.401 1081.08L1187.36 853.032" stroke="white" stroke-width="5" stroke-miterlimit="10"/>
<path d="M2997.14 1759.57L2996.88 1761.4L2981.16 1869.39C2977.62 1877.33 2956.05 1883.42 2929.97 1883.42C2903.89 1883.42 2882.32 1877.33 2878.78 1869.39L2863.05 1761.4L2862.79 1759.57C2863.21 1749.84 2893.13 1741.98 2929.97 1741.98C2966.82 1741.98 2996.73 1749.84 2997.14 1759.57Z" fill="#F1B104"/>
<path d="M2862.79 1759.57C2863.2 1749.84 2893.13 1741.98 2929.97 1741.98C2966.82 1741.98 2996.73 1749.84 2997.14 1759.57" stroke="white" stroke-width="5" stroke-miterlimit="10"/>
<path d="M3008.76 1568.06H2976.91C2961.03 1568.06 2947.14 1578.75 2943.08 1594.1L2907.42 1786.48" stroke="#FF6E00" stroke-width="5" stroke-miterlimit="10"/>
<path d="M2848.42 1660.84C2851.65 1672.02 2886.93 1680.83 2929.97 1680.83C2973.01 1680.83 3008.29 1672.02 3011.52 1660.84L2981.16 1869.39C2977.62 1877.32 2956.05 1883.42 2929.97 1883.42C2903.89 1883.42 2882.32 1877.32 2878.78 1869.39L2848.42 1660.84Z" stroke="#573240" stroke-width="5" stroke-miterlimit="10" stroke-linecap="round"/>
<path d="M2896.2 1879.19L2874.54 1674.99" stroke="#573240" stroke-width="5" stroke-miterlimit="10" stroke-linecap="round"/>
<path d="M2913.61 1882.45L2900.66 1679.35" stroke="#573240" stroke-width="5" stroke-miterlimit="10" stroke-linecap="round"/>
<path d="M2964.87 1879.19L2986.53 1674.99" stroke="#573240" stroke-width="5" stroke-miterlimit="10" stroke-linecap="round"/>
<path d="M2947.46 1882.45L2960.41 1679.35" stroke="#573240" stroke-width="5" stroke-miterlimit="10" stroke-linecap="round"/>
<path d="M2929.97 1680.83V1883.42" stroke="#573240" stroke-width="5" stroke-miterlimit="10" stroke-linecap="round"/>
<path d="M3014.86 1660.34C3014.86 1660.97 3014.78 1661.59 3014.61 1662.2C3014.61 1662.21 3014.61 1662.21 3014.61 1662.21C3011.26 1674.68 2974.65 1684.51 2929.97 1684.51C2885.3 1684.51 2848.68 1674.68 2845.32 1662.21C2845.32 1662.21 2845.32 1662.21 2845.32 1662.2C2845.15 1661.59 2845.07 1660.97 2845.07 1660.34C2845.07 1646.98 2883.09 1636.15 2929.97 1636.15C2976.86 1636.15 3014.86 1646.98 3014.86 1660.34Z" fill="white"/>
<path d="M2929.77 1661.57C2939.54 1661.57 2947.46 1658.75 2947.46 1655.26C2947.46 1651.78 2939.54 1648.95 2929.77 1648.95C2920 1648.95 2912.08 1651.78 2912.08 1655.26C2912.08 1658.75 2920 1661.57 2929.77 1661.57Z" stroke="#573240" stroke-width="5" stroke-miterlimit="10" stroke-linecap="round"/>
<path d="M3008.76 1568.06H2976.91C2961.03 1568.06 2947.14 1578.75 2943.08 1594.1L2931.12 1658.6" stroke="#FF6E00" stroke-width="5" stroke-miterlimit="10"/>
<path d="M1894.79 1644.94H2423.04L2594.57 1811.84H1734.15L1894.79 1644.94Z" fill="#A9D8D5"/>
<path d="M1893.93 1644.57V1334.48H2422.77V1644.94L1893.93 1644.57Z" fill="#F1B104"/>
<path d="M2594.57 1811.84H1734.15V1836.5H2594.57V1811.84Z" fill="#F1B104"/>
<path d="M2185.72 1718.05L2405.98 1724.58C2405.98 1755.53 2297.62 1780.63 2163.95 1780.63C2030.28 1780.63 1921.92 1755.53 1921.92 1724.58C1921.92 1693.63 2030.28 1668.53 2163.95 1668.53L2185.72 1718.05Z" fill="#F1B104"/>
<path d="M2027.27 1677.27L2184.63 1716.96" stroke="white" stroke-width="3" stroke-miterlimit="10" stroke-linecap="round"/>
<path d="M2405.98 1724.58C2405.98 1755.54 2297.62 1780.63 2163.95 1780.63C2030.28 1780.63 1921.92 1755.54 1921.92 1724.58C1921.92 1693.63 2030.28 1668.53 2163.95 1668.53" stroke="#573240" stroke-width="6" stroke-miterlimit="10" stroke-linecap="round"/>
<path d="M2127.85 1764.34C2143.01 1764.34 2155.3 1758.7 2155.3 1751.74C2155.3 1744.78 2143.01 1739.14 2127.85 1739.14C2112.69 1739.14 2100.41 1744.78 2100.41 1751.74C2100.41 1758.7 2112.69 1764.34 2127.85 1764.34Z" fill="#FF6E00"/>
<path d="M2179.36 1703.6C2177.6 1703.77 2175.77 1703.86 2173.9 1703.86C2158.73 1703.86 2149.71 1698.09 2149.71 1690.98C2149.71 1684.78 2155.82 1679.58 2168.28 1678.38L2179.36 1703.6Z" fill="#FF6E00"/>
<path d="M2207.77 1746.86C2213.22 1746.86 2217.65 1742.61 2217.65 1737.35C2217.65 1732.1 2213.22 1727.84 2207.77 1727.84C2202.32 1727.84 2197.9 1732.1 2197.9 1737.35C2197.9 1742.61 2202.32 1746.86 2207.77 1746.86Z" fill="white"/>
<path d="M2078.45 1718.11C2083.18 1718.11 2087.01 1715.91 2087.01 1713.21C2087.01 1710.5 2083.18 1708.31 2078.45 1708.31C2073.73 1708.31 2069.89 1710.5 2069.89 1713.21C2069.89 1715.91 2073.73 1718.11 2078.45 1718.11Z" stroke="#573240" stroke-width="4" stroke-miterlimit="10" stroke-linecap="round"/>
<path d="M2134.94 1692C2138.73 1692 2141.81 1689.81 2141.81 1687.1C2141.81 1684.4 2138.73 1682.21 2134.94 1682.21C2131.15 1682.21 2128.07 1684.4 2128.07 1687.1C2128.07 1689.81 2131.15 1692 2134.94 1692Z" stroke="white" stroke-width="3" stroke-miterlimit="10" stroke-linecap="round"/>
<path d="M2185.01 1766.52C2189.22 1766.52 2192.63 1763.6 2192.63 1759.99C2192.63 1756.38 2189.22 1753.46 2185.01 1753.46C2180.8 1753.46 2177.39 1756.38 2177.39 1759.99C2177.39 1763.6 2180.8 1766.52 2185.01 1766.52Z" stroke="#573240" stroke-width="4" stroke-miterlimit="10" stroke-linecap="round"/>
<path d="M2117.02 1679.47L2098.81 1685.79" stroke="#A9D8D5" stroke-width="6" stroke-miterlimit="10"/>
<path d="M2151.37 1723.33L2170.83 1743.56" stroke="#A9D8D5" stroke-width="6" stroke-miterlimit="10"/>
<path d="M2236.3 1729.29L2227.15 1747.9" stroke="#A9D8D5" stroke-width="6" stroke-miterlimit="10"/>
<path d="M2098.81 1729.48L2069.89 1747.9" stroke="#A9D8D5" stroke-width="6" stroke-miterlimit="10"/>
<path d="M2027.27 1720.84C2042.42 1720.84 2054.71 1715.74 2054.71 1709.45C2054.71 1703.16 2042.42 1698.06 2027.27 1698.06C2012.11 1698.06 1999.82 1703.16 1999.82 1709.45C1999.82 1715.74 2012.11 1720.84 2027.27 1720.84Z" fill="#FF6E00"/>
<path d="M2274.42 1750.98C2289.58 1750.98 2301.87 1745.88 2301.87 1739.59C2301.87 1733.3 2289.58 1728.21 2274.42 1728.21C2259.27 1728.21 2246.98 1733.3 2246.98 1739.59C2246.98 1745.88 2259.27 1750.98 2274.42 1750.98Z" fill="#FF6E00"/>
<path d="M1981.87 1719.75L2005.27 1735.62" stroke="#A9D8D5" stroke-width="6" stroke-miterlimit="10"/>
<path d="M2319.07 1731.47L2335.68 1747.9" stroke="#A9D8D5" stroke-width="6" stroke-miterlimit="10"/>
<path d="M2038.58 1752.96C2045.37 1752.96 2050.88 1748.15 2050.88 1742.21C2050.88 1736.28 2045.37 1731.47 2038.58 1731.47C2031.79 1731.47 2026.28 1736.28 2026.28 1742.21C2026.28 1748.15 2031.79 1752.96 2038.58 1752.96Z" fill="white"/>
<path d="M2255.62 1763C2258.78 1763 2261.34 1760.81 2261.34 1758.1C2261.34 1755.4 2258.78 1753.2 2255.62 1753.2C2252.45 1753.2 2249.89 1755.4 2249.89 1758.1C2249.89 1760.81 2252.45 1763 2255.62 1763Z" stroke="white" stroke-width="3" stroke-miterlimit="10" stroke-linecap="round"/>
<path d="M1959.92 1729.48C1963.08 1729.48 1965.65 1727.29 1965.65 1724.58C1965.65 1721.88 1963.08 1719.68 1959.92 1719.68C1956.76 1719.68 1954.2 1721.88 1954.2 1724.58C1954.2 1727.29 1956.76 1729.48 1959.92 1729.48Z" stroke="white" stroke-width="3" stroke-miterlimit="10" stroke-linecap="round"/>
<path d="M2351 1741.19C2355.72 1741.19 2359.55 1739 2359.55 1736.29C2359.55 1733.59 2355.72 1731.39 2351 1731.39C2346.27 1731.39 2342.44 1733.59 2342.44 1736.29C2342.44 1739 2346.27 1741.19 2351 1741.19Z" stroke="#573240" stroke-width="4" stroke-miterlimit="10" stroke-linecap="round"/>
<path d="M4196.87 1479.93C4187.62 1505.65 4168.66 1522.39 4168.66 1522.39C4168.66 1522.39 4164.69 1497.41 4173.94 1471.68C4183.19 1445.96 4195.81 1426.95 4202.15 1429.22C4208.48 1431.5 4206.12 1454.2 4196.87 1479.93Z" fill="#A9D8D5"/>
<path d="M4024.93 1517.65C4056.24 1519.32 4080.89 1534.28 4080.89 1534.28C4080.89 1534.28 4054.79 1546.54 4023.48 1544.88C3992.17 1543.21 3967.12 1535.77 3967.52 1528.25C3967.92 1520.73 3993.62 1515.98 4024.93 1517.65Z" fill="#A9D8D5"/>
<path d="M4055.38 1428.39C4059.91 1459.42 4047.51 1486.91 4047.51 1486.91C4047.51 1486.91 4027.78 1464.1 4023.26 1433.08C4018.73 1402.05 4022.25 1375.86 4031.12 1374.56C4040 1373.27 4050.85 1397.37 4055.38 1428.39Z" fill="#A9D8D5"/>
<path d="M4208.29 1848.86C4193.69 1867.85 4170.34 1879.07 4170.34 1879.07C4170.34 1879.07 4176.09 1852.98 4190.69 1833.99C4205.28 1815.01 4218.64 1806.81 4223.2 1810.31C4227.75 1813.82 4222.88 1829.87 4208.29 1848.86Z" fill="#A9D8D5"/>
<path d="M4250.73 1627.77C4229.45 1638.77 4202.72 1637.84 4202.72 1637.84C4202.72 1637.84 4216.9 1614.49 4238.17 1603.49C4259.45 1592.49 4276.3 1591.31 4279.77 1598.02C4283.23 1604.72 4272 1616.78 4250.73 1627.77Z" fill="#A9D8D5"/>
<path d="M4169.49 1954.23V1516.3" stroke="#573240" stroke-width="4" stroke-miterlimit="10" stroke-linecap="round"/>
<path d="M4222.67 1587.47L4169.49 1730.1" stroke="#573240" stroke-width="4" stroke-miterlimit="10" stroke-linecap="round"/>
<path d="M4047.4 1483.52L4169.49 1658.79" stroke="#573240" stroke-width="4" stroke-miterlimit="10" stroke-linecap="round"/>
<path d="M4204.57 1362.61C4197.77 1381.54 4182.9 1393.53 4182.9 1393.53C4182.9 1393.53 4179.08 1374.82 4185.88 1355.89C4192.68 1336.96 4202.38 1323.11 4207.54 1324.97C4212.71 1326.82 4211.37 1343.68 4204.57 1362.61Z" fill="#573240"/>
<path d="M4170.39 1442.94C4179.62 1486.15 4170.95 1524.63 4170.95 1524.63C4170.95 1524.63 4147.32 1493.05 4138.09 1449.84C4128.86 1406.62 4128.61 1370.04 4137.53 1368.14C4146.45 1366.23 4161.17 1399.72 4170.39 1442.94Z" fill="#573240"/>
<path d="M4247.33 1557.56C4236.48 1593.96 4209.68 1622.02 4209.68 1622.02C4209.68 1622.02 4202.65 1584.52 4213.5 1548.12C4224.35 1511.72 4240.23 1487.59 4248.98 1490.19C4257.72 1492.8 4258.19 1521.16 4247.33 1557.56Z" fill="#573240"/>
<path d="M4146.29 1773.38C4165.34 1801.67 4169.49 1832.22 4169.49 1832.22C4169.49 1832.22 4142.73 1816.9 4123.67 1788.61C4104.62 1760.32 4094.23 1733.97 4100.47 1729.77C4106.72 1725.56 4127.23 1745.09 4146.29 1773.38Z" fill="#573240"/>
<path d="M4136.96 1800.85C4156.92 1812.32 4167.65 1831.09 4167.65 1831.09C4167.65 1831.09 4146.03 1831.25 4126.07 1819.78C4106.12 1808.3 4092.37 1794.76 4095.38 1789.53C4098.39 1784.31 4117 1789.37 4136.96 1800.85Z" fill="#A9D8D5"/>
<path d="M4010.19 1498.53C4014.41 1498.53 4017.82 1495.11 4017.82 1490.9C4017.82 1486.68 4014.41 1483.27 4010.19 1483.27C4005.98 1483.27 4002.56 1486.68 4002.56 1490.9C4002.56 1495.11 4005.98 1498.53 4010.19 1498.53Z" stroke="#573240" stroke-width="4" stroke-miterlimit="10" stroke-linecap="round"/>
<path d="M4280.41 1563.65C4284.63 1563.65 4288.04 1560.23 4288.04 1556.02C4288.04 1551.8 4284.63 1548.39 4280.41 1548.39C4276.2 1548.39 4272.78 1551.8 4272.78 1556.02C4272.78 1560.23 4276.2 1563.65 4280.41 1563.65Z" stroke="#573240" stroke-width="4" stroke-miterlimit="10" stroke-linecap="round"/>
<path d="M4150.65 1864.1C4154.86 1864.1 4158.28 1860.68 4158.28 1856.47C4158.28 1852.25 4154.86 1848.84 4150.65 1848.84C4146.43 1848.84 4143.01 1852.25 4143.01 1856.47C4143.01 1860.68 4146.43 1864.1 4150.65 1864.1Z" stroke="#573240" stroke-width="4" stroke-miterlimit="10" stroke-linecap="round"/>
<path d="M3844.92 1957.75L3808.03 1875.04L3869.79 1933.16L3838.91 1768.48L3948.02 1937.49L4025.86 1834.32" stroke="#A9D8D5" stroke-width="5" stroke-miterlimit="10" stroke-linecap="round" stroke-linejoin="round"/>
<path d="M3651.74 1957.75H4353.35" stroke="#A9D8D5" stroke-width="5" stroke-miterlimit="10"/>
<path d="M794.263 1954.23C730.47 1954.23 695.169 1902.77 636.732 1855.28C551.006 1785.61 476.986 1873.82 509.637 1886.48C548.402 1901.5 573.197 1754.25 479.752 1754.25C408.26 1754.25 329.823 1925.39 269.709 1953.99" stroke="#A9D8D5" stroke-width="5" stroke-miterlimit="10"/>
<path d="M133.514 1590.77C145.967 1624.66 143.831 1666.44 143.831 1666.44C143.831 1666.44 115.152 1635.99 102.699 1602.09C90.246 1568.2 90.224 1546.84 98.733 1543.71C107.243 1540.58 121.061 1556.88 133.514 1590.77Z" fill="#A9D8D5"/>
<path d="M309.074 1451.83C301.13 1497.21 272.033 1541.96 272.033 1541.96C272.033 1541.96 259.867 1489.99 267.811 1444.61C275.755 1399.23 289.406 1375.63 300.801 1377.62C312.195 1379.62 317.018 1406.45 309.074 1451.83Z" fill="#A9D8D5"/>
<path d="M248.987 1318.36C241.043 1363.74 211.946 1408.49 211.946 1408.49C211.946 1408.49 199.78 1356.52 207.724 1311.14C215.668 1265.76 229.319 1242.16 240.714 1244.15C252.109 1246.15 256.931 1272.98 248.987 1318.36Z" fill="#573240"/>
<path d="M424.133 1229.31C414.935 1276.08 390.115 1310.58 390.115 1310.58C390.115 1310.58 380.209 1269.25 389.408 1222.48C398.607 1175.71 413.837 1139.32 423.426 1141.21C433.015 1143.09 433.331 1182.54 424.133 1229.31Z" fill="#A9D8D5"/>
<path d="M216.633 1144.92L209.578 1954.23" stroke="#573240" stroke-width="4" stroke-miterlimit="10" stroke-linecap="round"/>
<path d="M395.558 1297.4L212.444 1663.54" stroke="#573240" stroke-width="4" stroke-miterlimit="10" stroke-linecap="round"/>
<path d="M463.197 1303.25L369.458 1349.28" stroke="#573240" stroke-width="4" stroke-miterlimit="10" stroke-linecap="round"/>
<path d="M131.814 1647.94L210.243 1772.94" stroke="#573240" stroke-width="4" stroke-miterlimit="10" stroke-linecap="round"/>
<path d="M499.211 1312.34C469.768 1321.41 435.448 1315.57 435.448 1315.57C435.448 1315.57 460.07 1289.93 489.512 1280.86C518.954 1271.79 539.39 1274.03 542.069 1282.73C544.747 1291.42 528.653 1303.27 499.211 1312.34Z" fill="#A9D8D5"/>
<path d="M467.411 1295.94C448.19 1316.82 417.085 1328.01 417.085 1328.01C417.085 1328.01 424.776 1296.17 443.997 1275.29C463.218 1254.41 480.523 1246.71 486.689 1252.39C492.855 1258.06 486.632 1275.05 467.411 1295.94Z" fill="#573240"/>
<path d="M473.703 1206.25C480.285 1206.25 485.62 1200.91 485.62 1194.33C485.62 1187.75 480.285 1182.41 473.703 1182.41C467.122 1182.41 461.786 1187.75 461.786 1194.33C461.786 1200.91 467.122 1206.25 473.703 1206.25Z" stroke="#573240" stroke-width="4" stroke-miterlimit="10" stroke-linecap="round"/>
<path d="M335.463 1508.23C309.599 1529.03 272.58 1539.44 272.58 1539.44C272.58 1539.44 290.684 1505.51 316.547 1484.71C342.41 1463.91 361.016 1457.61 366.24 1464.1C371.464 1470.6 361.327 1487.42 335.463 1508.23Z" fill="#573240"/>
<path d="M276.674 1789.79C262.09 1813.36 232.241 1829.61 232.241 1829.61C232.241 1829.61 233.475 1795.65 248.058 1772.08C262.642 1748.52 277.151 1739.39 285.053 1744.28C292.955 1749.17 291.257 1766.23 276.674 1789.79Z" fill="#573240"/>
<path d="M100.66 1307.71C116.569 1325.42 122.77 1353.95 122.77 1353.95C122.77 1353.95 95.063 1344.74 79.154 1327.03C63.245 1309.32 59.219 1295.16 65.158 1289.82C71.097 1284.49 84.751 1290 100.66 1307.71Z" fill="#573240"/>
<path d="M356.68 1435.06C360.669 1435.06 363.902 1431.83 363.902 1427.84C363.902 1423.85 360.669 1420.62 356.68 1420.62C352.691 1420.62 349.458 1423.85 349.458 1427.84C349.458 1431.83 352.691 1435.06 356.68 1435.06Z" stroke="#573240" stroke-width="4" stroke-miterlimit="10" stroke-linecap="round"/>
<path d="M186.802 1265.02C190.791 1265.02 194.024 1261.79 194.024 1257.8C194.024 1253.81 190.791 1250.58 186.802 1250.58C182.813 1250.58 179.58 1253.81 179.58 1257.8C179.58 1261.79 182.813 1265.02 186.802 1265.02Z" stroke="#573240" stroke-width="4" stroke-miterlimit="10" stroke-linecap="round"/>
<path d="M66.5891 1617.69C72.076 1617.69 76.524 1613.24 76.524 1607.75C76.524 1602.27 72.076 1597.82 66.5891 1597.82C61.1021 1597.82 56.6541 1602.27 56.6541 1607.75C56.6541 1613.24 61.1021 1617.69 66.5891 1617.69Z" stroke="#573240" stroke-width="4" stroke-miterlimit="10" stroke-linecap="round"/>
<path d="M245.758 1106.84C236.635 1140.31 216.177 1163.88 216.177 1163.88C216.177 1163.88 210.511 1133.19 219.634 1099.72C228.757 1066.25 242.001 1040.72 249.215 1042.68C256.429 1044.65 254.881 1073.37 245.758 1106.84Z" fill="#A9D8D5"/>
<path d="M208.161 1123.53C218.905 1142.35 216.141 1164.16 216.141 1164.16C216.141 1164.16 195.958 1155.45 185.214 1136.63C174.47 1117.8 170.897 1099.61 177.234 1095.99C183.57 1092.38 197.417 1104.7 208.161 1123.53Z" fill="#573240"/>
<path d="M100.261 1646.78C121.922 1648.65 143.897 1663.47 143.897 1663.47C143.897 1663.47 119.706 1674.29 98.045 1672.42C76.384 1670.54 64.845 1663.76 65.457 1656.68C66.068 1649.61 78.6 1644.91 100.261 1646.78Z" fill="#573240"/>
<path d="M207.147 1350.86C223.037 1394.1 215.759 1448.68 215.759 1448.68C215.759 1448.68 175.702 1411.1 159.811 1367.85C143.921 1324.61 145.444 1296.78 158.214 1292.08C170.986 1287.39 191.257 1307.62 207.147 1350.86Z" fill="#A9D8D5"/>
<path d="M65.4331 1954.23H826.564" stroke="#A9D8D5" stroke-width="5" stroke-miterlimit="10"/>
<path d="M110.759 1927.74L63.864 1833.24L146.181 1920.14L157.064 1812.96L211.333 1954.23L261.108 1888.1" stroke="#A9D8D5" stroke-width="5" stroke-miterlimit="10" stroke-linecap="round" stroke-linejoin="round"/>
</svg>
